<?xml version="1.0" encoding="UTF-8" standalone="no"?>
<!-- Created with Inkscape (http://www.inkscape.org/) -->

<svg
   xmlns:dc="http://purl.org/dc/elements/1.1/"
   xmlns:cc="http://creativecommons.org/ns#"
   xmlns:rdf="http://www.w3.org/1999/02/22-rdf-syntax-ns#"
   xmlns:svg="http://www.w3.org/2000/svg"
   xmlns="http://www.w3.org/2000/svg"
   xmlns:sodipodi="http://sodipodi.sourceforge.net/DTD/sodipodi-0.dtd"
   xmlns:inkscape="http://www.inkscape.org/namespaces/inkscape"
   width="480"
   height="480"
   id="svg2"
   version="1.1"
   inkscape:version="0.48+devel r10124"
   sodipodi:docname="group.svg">
  <defs
     id="defs4">
    <clipPath
       id="clipPath159"
       clipPathUnits="userSpaceOnUse">
      <path
         id="path161"
         d="M 0,0 49,0 49,49 0,49 0,0 z"
         inkscape:connector-curvature="0" />
    </clipPath>
    <clipPath
       id="clipPath153"
       clipPathUnits="userSpaceOnUse">
      <path
         id="path155"
         d="m 0,49 48.96,0 0,-48.94 L 0,0.06 0,49 z"
         inkscape:connector-curvature="0" />
    </clipPath>
    <clipPath
       id="clipPath143"
       clipPathUnits="userSpaceOnUse">
      <path
         id="path145"
         d="M 0,0 49,0 49,49 0,49 0,0 z"
         inkscape:connector-curvature="0" />
    </clipPath>
    <clipPath
       id="clipPath131"
       clipPathUnits="userSpaceOnUse">
      <path
         id="path133"
         d="M 0,0 49,0 49,49 0,49 0,0 z"
         inkscape:connector-curvature="0" />
    </clipPath>
    <clipPath
       id="clipPath125"
       clipPathUnits="userSpaceOnUse">
      <path
         id="path127"
         d="m 0,49 48.96,0 0,-48.94 L 0,0.06 0,49 z"
         inkscape:connector-curvature="0" />
    </clipPath>
    <clipPath
       id="clipPath115"
       clipPathUnits="userSpaceOnUse">
      <path
         id="path117"
         d="M 0,0 49,0 49,49 0,49 0,0 z"
         inkscape:connector-curvature="0" />
    </clipPath>
  </defs>
  <sodipodi:namedview
     id="base"
     pagecolor="#ffffff"
     bordercolor="#666666"
     borderopacity="1.0"
     inkscape:pageopacity="0.0"
     inkscape:pageshadow="2"
     inkscape:zoom="0.35"
     inkscape:cx="1118.0768"
     inkscape:cy="520"
     inkscape:document-units="px"
     inkscape:current-layer="layer1"
     showgrid="false"
     inkscape:window-width="984"
     inkscape:window-height="1037"
     inkscape:window-x="56"
     inkscape:window-y="24"
     inkscape:window-maximized="0" />
  <metadata
     id="metadata7">
    <rdf:RDF>
      <cc:Work
         rdf:about="">
        <dc:format>image/svg+xml</dc:format>
        <dc:type
           rdf:resource="http://purl.org/dc/dcmitype/StillImage" />
        <dc:title></dc:title>
      </cc:Work>
    </rdf:RDF>
  </metadata>
  <g
     inkscape:label="Layer 1"
     inkscape:groupmode="layer"
     id="layer1"
     transform="translate(0,-572.36218)">
    <g
       transform="matrix(9.7729369,0,0,-9.7729369,0.82859957,1052.0772)"
       inkscape:label="V-21-i copy"
       id="g107">
      <g
         id="g109" />
      <g
         id="g111">
        <g
           clip-path="url(#clipPath115)"
           id="g113">
          <path
             id="path119"
             style="fill:#8dc63f;fill-opacity:1;fill-rule:nonzero;stroke:none"
             d="M 48.499,24.498 C 48.499,11.244 37.755,0.5 24.503,0.5 11.248,0.5 0.501,11.244 0.501,24.498 0.501,37.756 11.248,48.5 24.503,48.5 37.755,48.5 48.499,37.756 48.499,24.498"
             inkscape:connector-curvature="0" />
        </g>
      </g>
      <g
         id="g121">
        <g
           clip-path="url(#clipPath125)"
           id="g123">
          <g
             clip-path="url(#clipPath131)"
             id="g129">
            <path
               id="path135"
               style="fill:#ffffff;fill-opacity:1;fill-rule:nonzero;stroke:none"
               d="m 36.069,22.566 -2.026,0 c -1.01,1.207 -2.429,1.887 -4.002,1.934 0.787,1.131 1.226,2.492 1.226,3.865 0,0.332 -0.033,0.664 -0.078,0.996 0.652,-0.224 1.315,-0.347 2.01,-0.347 2.039,0 3.609,1.283 3.926,1.283 1.919,0 1.874,-4.106 1.874,-5.33 0,-1.676 -1.42,-2.401 -2.93,-2.401 m -2.87,7.731 c -2.131,0 -3.866,1.738 -3.866,3.869 0,2.129 1.735,3.865 3.866,3.865 2.13,0 3.867,-1.736 3.867,-3.865 0,-2.131 -1.737,-3.869 -3.867,-3.869 M 24.5,22.566 c -3.203,0 -5.8,2.598 -5.8,5.799 0,3.203 2.597,5.801 5.8,5.801 3.201,0 5.8,-2.598 5.8,-5.801 0,-3.201 -2.599,-5.799 -5.8,-5.799 m 6.599,-11.599 -13.2,0 c -2.416,0 -4.032,1.465 -4.032,3.91 0,3.414 0.801,8.654 5.226,8.654 0.513,0 2.386,-2.097 5.407,-2.097 3.021,0 4.894,2.097 5.407,2.097 4.425,0 5.226,-5.24 5.226,-8.654 0,-2.445 -1.616,-3.91 -4.034,-3.91 m -15.298,19.33 c -2.13,0 -3.866,1.738 -3.866,3.869 0,2.129 1.736,3.865 3.866,3.865 2.131,0 3.866,-1.736 3.866,-3.865 0,-2.131 -1.735,-3.869 -3.866,-3.869 m -0.846,-7.731 -2.025,0 c -1.509,0 -2.929,0.725 -2.929,2.401 0,1.224 -0.045,5.33 1.871,5.33 0.319,0 1.892,-1.283 3.929,-1.283 0.695,0 1.359,0.123 2.009,0.347 -0.046,-0.332 -0.076,-0.664 -0.076,-0.996 0,-1.373 0.439,-2.734 1.225,-3.865 -1.573,-0.047 -2.992,-0.727 -4.004,-1.934"
               inkscape:connector-curvature="0" />
            <path
               id="path137"
               style="fill:#f2f2f2;fill-opacity:1;fill-rule:nonzero;stroke:none"
               d="m 24.502,0 0,0.5 c 0.001,0 0.001,0 0.001,0 13.252,0 23.996,10.744 23.996,23.998 0,13.258 -10.744,24.002 -23.996,24.002 L 24.502,49 C 38.032,49 49,38.031 49,24.498 49,10.967 38.032,0 24.502,0"
               inkscape:connector-curvature="0" />
          </g>
        </g>
      </g>
      <g
         id="g139">
        <g
           clip-path="url(#clipPath143)"
           id="g141">
          <path
             id="path147"
             style="fill:#86bc3c;fill-opacity:1;fill-rule:nonzero;stroke:none"
             d="m 24.503,0.5 0,0 -0.001,10.467 6.597,0 c 2.418,0 4.034,1.465 4.034,3.91 0,3.414 -0.801,8.654 -5.226,8.654 -0.513,0 -2.385,-2.096 -5.405,-2.097 l 0,1.132 c 3.2,0.001 5.798,2.599 5.798,5.799 0,3.203 -2.598,5.8 -5.798,5.801 l 0,14.334 c 0.001,0 0.001,0 0.001,0 13.252,0 23.996,-10.744 23.996,-24.002 C 48.499,11.244 37.755,0.5 24.503,0.5 m 6.686,28.861 c 0.045,-0.332 0.078,-0.664 0.078,-0.996 0,-1.373 -0.439,-2.734 -1.226,-3.865 1.573,-0.047 2.992,-0.727 4.002,-1.934 l 2.026,0 c 1.51,0 2.93,0.725 2.93,2.401 0,1.224 0.045,5.33 -1.874,5.33 -0.317,0 -1.887,-1.283 -3.926,-1.283 -0.695,0 -1.358,0.123 -2.01,0.347 m 2.01,8.67 c -2.131,0 -3.866,-1.736 -3.866,-3.865 0,-2.131 1.735,-3.869 3.866,-3.869 2.13,0 3.867,1.738 3.867,3.869 0,2.129 -1.737,3.865 -3.867,3.865"
             inkscape:connector-curvature="0" />
        </g>
      </g>
      <g
         id="g149">
        <g
           clip-path="url(#clipPath153)"
           id="g151">
          <g
             clip-path="url(#clipPath159)"
             id="g157">
            <path
               id="path163"
               style="fill:#f2f2f2;fill-opacity:1;fill-rule:nonzero;stroke:none"
               d="m 31.099,10.967 -6.597,0 0,10.467 c 3.02,10e-4 4.892,2.097 5.405,2.097 4.425,0 5.226,-5.24 5.226,-8.654 0,-2.445 -1.616,-3.91 -4.034,-3.91 m 4.97,11.599 -2.026,0 c -1.01,1.207 -2.429,1.887 -4.002,1.934 0.787,1.131 1.226,2.492 1.226,3.865 0,0.332 -0.033,0.664 -0.078,0.996 0.652,-0.224 1.315,-0.347 2.01,-0.347 2.039,0 3.609,1.283 3.926,1.283 1.919,0 1.874,-4.106 1.874,-5.33 0,-1.676 -1.42,-2.401 -2.93,-2.401 m -11.567,0 0,11.6 c 3.2,-10e-4 5.798,-2.598 5.798,-5.801 0,-3.2 -2.598,-5.798 -5.798,-5.799 m 8.697,7.731 c -2.131,0 -3.866,1.738 -3.866,3.869 0,2.129 1.735,3.865 3.866,3.865 2.13,0 3.867,-1.736 3.867,-3.865 0,-2.131 -1.737,-3.869 -3.867,-3.869"
               inkscape:connector-curvature="0" />
            <path
               id="path165"
               style="fill:#ffffff;fill-opacity:1;fill-rule:nonzero;stroke:none"
               d="M 24.503,49 C 10.971,49 0,38.033 0,24.498 0,10.967 10.971,0 24.503,0 38.032,0 49,10.967 49,24.498 49,38.033 38.032,49 24.503,49 z m 0,-1 C 37.459,48 48,37.457 48,24.498 48,11.541 37.459,1 24.503,1 11.544,1 1,11.541 1,24.498 1,37.457 11.544,48 24.503,48"
               inkscape:connector-curvature="0" />
          </g>
        </g>
      </g>
    </g>
  </g>
</svg>
